<?xml version="1.0" standalone="no"?>
<svg xmlns:xlink="http://www.w3.org/1999/xlink" id="wave" style="transform:rotate(180deg); transition: 0.3s" viewBox="0 0 1440 490" version="1.1" xmlns="http://www.w3.org/2000/svg"><defs><linearGradient id="sw-gradient-0" x1="0" x2="0" y1="1" y2="0"><stop stop-color="rgba(0, 149.034, 230.325, 0.4196078431372549)" offset="0%"/><stop stop-color="rgba(255, 255, 255, 1)" offset="100%"/></linearGradient></defs><path style="transform:translate(0, 0px); opacity:1" fill="url(#sw-gradient-0)" d="M0,49L48,65.3C96,82,192,114,288,155.2C384,196,480,245,576,269.5C672,294,768,294,864,277.7C960,261,1056,229,1152,245C1248,261,1344,327,1440,326.7C1536,327,1632,261,1728,228.7C1824,196,1920,196,2016,187.8C2112,180,2208,163,2304,147C2400,131,2496,114,2592,89.8C2688,65,2784,33,2880,49C2976,65,3072,131,3168,130.7C3264,131,3360,65,3456,89.8C3552,114,3648,229,3744,285.8C3840,343,3936,343,4032,294C4128,245,4224,147,4320,122.5C4416,98,4512,147,4608,204.2C4704,261,4800,327,4896,359.3C4992,392,5088,392,5184,383.8C5280,376,5376,359,5472,367.5C5568,376,5664,408,5760,367.5C5856,327,5952,212,6048,179.7C6144,147,6240,196,6336,236.8C6432,278,6528,310,6624,343C6720,376,6816,408,6864,424.7L6912,441L6912,490L6864,490C6816,490,6720,490,6624,490C6528,490,6432,490,6336,490C6240,490,6144,490,6048,490C5952,490,5856,490,5760,490C5664,490,5568,490,5472,490C5376,490,5280,490,5184,490C5088,490,4992,490,4896,490C4800,490,4704,490,4608,490C4512,490,4416,490,4320,490C4224,490,4128,490,4032,490C3936,490,3840,490,3744,490C3648,490,3552,490,3456,490C3360,490,3264,490,3168,490C3072,490,2976,490,2880,490C2784,490,2688,490,2592,490C2496,490,2400,490,2304,490C2208,490,2112,490,2016,490C1920,490,1824,490,1728,490C1632,490,1536,490,1440,490C1344,490,1248,490,1152,490C1056,490,960,490,864,490C768,490,672,490,576,490C480,490,384,490,288,490C192,490,96,490,48,490L0,490Z"/></svg>